<?xml version="1.0" encoding="UTF-8"?>
<svg id="Layer_1" xmlns="http://www.w3.org/2000/svg" version="1.1" viewBox="0 0 190.1 92">
  <!-- Generator: Adobe Illustrator 29.2.0, SVG Export Plug-In . SVG Version: 2.1.0 Build 108)  -->
  <defs>
    <style>
      .st0 {
        fill: #dd1d1d;
      }
    </style>
  </defs>
  <path class="st0" d="M50.5,51c5.7-8.8,12.7-16.8,20.7-23.8l.9-.8.6,1c4.8,8.2,5.3,17.2,5.7,23.7,0,.9,0,1.7,0,2.6v1.5s-1.4-.6-1.4-.6c-2.2-.9-4.4-1.3-6.8-1.3-9.9,0-17.9,8-17.9,17.9s8,17.9,17.9,17.9,17.9-8,17.9-17.9V1.8H18.3C8.5,1.8.5,9.7.5,19.6s8,17.8,17.8,17.8,17.8-8,17.8-17.8-.6-5.4-1.9-7.9l-.7-1.4h1.6c.8,0,1.5,0,2.3,0,5.2.2,16,.6,25.3,6.7l1,.6-.8.9c-8.1,5.6-17,12.8-26,21.8C19.5,57.5,8.3,75.3,1.2,89.1h33.6c2.8-13.7,8.1-26.5,15.6-38.1Z"/>
  <path class="st0" d="M140.9,49.9c8.8,5.7,16.8,12.7,23.8,20.8l.8.9-1,.6c-8.2,4.8-17.2,5.3-23.7,5.7-.9,0-1.7,0-2.6,0h-1.5s.6-1.4.6-1.4c.9-2.2,1.3-4.4,1.3-6.8,0-9.9-8-17.9-17.9-17.9s-17.9,8-17.9,17.9,8,17.9,17.9,17.9h69.5V17.8c0-9.8-8-17.8-17.8-17.8s-17.8,8-17.8,17.8,8,17.8,17.8,17.8,5.4-.6,7.9-1.9l1.4-.7v1.6c0,.8,0,1.5,0,2.3-.2,5.2-.6,16-6.8,25.3l-.6,1-.9-.8c-5.6-8.1-12.8-17-21.8-26C134.4,19,116.6,7.8,102.8.7v33.6c13.7,2.8,26.5,8.1,38.1,15.6Z"/>
</svg>