<?xml version="1.0" encoding="UTF-8"?>
<svg id="Layer_1" xmlns="http://www.w3.org/2000/svg" version="1.1" viewBox="0 0 190.13 91.99">
  <!-- Generator: Adobe Illustrator 29.2.0, SVG Export Plug-In . SVG Version: 2.1.0 Build 108)  -->
  <defs>
    <style>
      .st0 {
        fill: #f6eadb;
      }
    </style>
  </defs>
  <path class="st0" d="M50.45,51.01c5.73-8.83,12.71-16.83,20.75-23.75l.91-.78.61,1.03c4.81,8.19,5.32,17.17,5.7,23.73.05.87.07,1.72.09,2.56l.02,1.52-1.4-.57c-2.16-.89-4.44-1.33-6.77-1.33-9.86,0-17.89,8.02-17.89,17.89s8.02,17.89,17.89,17.89,17.89-8.02,17.89-17.89l-.05-69.54H18.32C8.51,1.76.52,9.74.52,19.56s7.98,17.8,17.8,17.8,17.8-7.98,17.8-17.8c0-2.77-.64-5.45-1.89-7.95l-.72-1.45h1.62c.75,0,1.51,0,2.28.04,5.21.21,16.04.63,25.28,6.75l.97.64-.78.86c-8.11,5.64-17.05,12.79-26.05,21.77C19.48,57.53,8.33,75.29,1.24,89.09l33.64-.14c2.82-13.6,8.06-26.35,15.57-37.94Z"/>
  <path class="st0" d="M140.88,49.93c8.83,5.73,16.83,12.71,23.75,20.75l.78.91-1.03.61c-8.19,4.81-17.17,5.32-23.73,5.7-.87.05-1.72.07-2.56.09l-1.52.02.57-1.4c.89-2.16,1.33-4.44,1.33-6.77,0-9.86-8.02-17.89-17.89-17.89s-17.89,8.02-17.89,17.89,8.02,17.89,17.89,17.89l69.54-.05V17.8c0-9.81-7.98-17.8-17.8-17.8s-17.8,7.98-17.8,17.8,7.98,17.8,17.8,17.8c2.77,0,5.45-.64,7.95-1.89l1.45-.72v1.62c0,.75,0,1.51-.04,2.28-.21,5.21-.63,16.04-6.75,25.28l-.64.97-.86-.78c-5.64-8.11-12.79-17.05-21.77-26.05C134.36,18.96,116.6,7.81,102.8.72l.14,33.64c13.6,2.82,26.35,8.06,37.94,15.57Z"/>
</svg>