<?xml version="1.0" encoding="UTF-8"?>
<svg id="Layer_1" xmlns="http://www.w3.org/2000/svg" version="1.1" viewBox="0 0 486.2 89.2">
  <!-- Generator: Adobe Illustrator 29.2.0, SVG Export Plug-In . SVG Version: 2.1.0 Build 108)  -->
  <defs>
    <style>
      .st0 {
        fill: #dd1d1d;
      }
    </style>
  </defs>
  <path class="st0" d="M49.9,50c5.7-8.8,12.7-16.8,20.7-23.8l.9-.8.6,1c4.8,8.2,5.3,17.2,5.7,23.7,0,.9,0,1.7,0,2.6v1.5s-1.4-.6-1.4-.6c-2.2-.9-4.4-1.3-6.8-1.3-9.9,0-17.9,8-17.9,17.9s8,17.9,17.9,17.9,17.9-8,17.9-17.9V.8H17.8C8,.8,0,8.7,0,18.6s8,17.8,17.8,17.8,17.8-8,17.8-17.8-.6-5.4-1.9-7.9l-.7-1.4h1.6c.8,0,1.5,0,2.3,0,5.2.2,16,.6,25.3,6.7l1,.6-.8.9c-8.1,5.6-17,12.8-26,21.8C19,56.5,7.8,74.3.7,88.1h33.6c2.8-13.7,8.1-26.5,15.6-38.1Z"/>
  <path class="st0" d="M139.4,49.9c8.8,5.7,16.8,12.7,23.8,20.8l.8.9-1,.6c-8.2,4.8-17.2,5.3-23.7,5.7-.9,0-1.7,0-2.6,0h-1.5s.6-1.4.6-1.4c.9-2.2,1.3-4.4,1.3-6.8,0-9.9-8-17.9-17.9-17.9s-17.9,8-17.9,17.9,8,17.9,17.9,17.9h69.5V17.8c0-9.8-8-17.8-17.8-17.8s-17.8,8-17.8,17.8,8,17.8,17.8,17.8,5.4-.6,7.9-1.9l1.4-.7v1.6c0,.8,0,1.5,0,2.3-.2,5.2-.6,16-6.8,25.3l-.6,1-.9-.8c-5.6-8.1-12.8-17-21.8-26C132.8,19,115.1,7.8,101.3.7v33.6c13.7,2.8,26.5,8.1,38.1,15.6Z"/>
  <g>
    <path class="st0" d="M206,1.4h16.7c13.1,0,17.2,4.2,17.2,10.7s-1.5,7.1-6.4,8.2h0c5.1,1.1,6.2,4.2,6.2,7.8v8.1h-13.9v-8.6c0-2.4-.9-3.3-3-3.3h-2.9v11.9h-14V1.4ZM222.8,18.4c2.4,0,3.5-1,3.5-3.3s-1.1-3.2-3.6-3.2h-2.8v6.6h2.8Z"/>
    <path class="st0" d="M271.7,24.5h-16.8c.2,3.3,1.1,4.6,3.3,4.6s2.8-1,2.8-3h10.7c0,6.3-4.1,10.6-14.3,10.6s-15.3-6.1-15.3-13.2,5.9-13.8,15.3-13.8,14.3,4.1,14.3,12.2v2.6ZM261,19.3c0-1.9-1-3-2.8-3s-2.9,1-3.2,4h6v-1Z"/>
    <path class="st0" d="M286.7,30.8h0c0,1.6.1,4,.2,5.4h-12.8V-.5h12.8v9.9c0,1.5,0,3.7-.2,5h.1c1.2-3,4-4.8,8.4-4.8,6.8,0,10.7,4.3,10.7,12.9s-4.5,14.1-10.7,14.1-7.5-2.6-8.5-5.8ZM293.2,23c0-3.1-1-4.7-2.9-4.7s-3.4,1.4-3.4,4.4v1.7c.2,2.4,1.5,3.5,3.4,3.5s3-1.5,3-4.9Z"/>
    <path class="st0" d="M337.4,24.5h-16.8c.2,3.3,1.1,4.6,3.3,4.6s2.8-1,2.8-3h10.7c0,6.3-4.1,10.6-14.3,10.6s-15.3-6.1-15.3-13.2,5.9-13.8,15.3-13.8,14.3,4.1,14.3,12.2v2.6ZM326.7,19.3c0-1.9-1-3-2.8-3s-2.9,1-3.2,4h6v-1Z"/>
    <path class="st0" d="M339.1,23.2c0-8,5.2-13.5,15.1-13.5s14.2,4.6,14.2,12.4h-10.7c0-2.7-1.1-3.8-2.7-3.8s-3.1,1.4-3.1,4.8,1.2,4.8,3,4.8,2.8-1,2.9-3.7h10.7c0,7.7-3.9,12.3-14.6,12.3s-14.8-6.1-14.8-13.4Z"/>
    <path class="st0" d="M370.3,23.2c0-8,5.2-13.5,15.1-13.5s14.2,4.6,14.2,12.4h-10.7c0-2.7-1.1-3.8-2.7-3.8s-3.1,1.4-3.1,4.8,1.2,4.8,3,4.8,2.8-1,2.9-3.7h10.7c0,7.7-3.9,12.3-14.6,12.3s-14.8-6.1-14.8-13.4Z"/>
    <path class="st0" d="M401.5,29.4c0-3.8,2.3-6.8,8.3-6.8h8.6v-2.1c0-1.7-.8-2.7-2.6-2.7s-2.7.8-2.7,2.5,0,.5,0,1h-10.7c0-.6-.1-1.3-.1-2,0-5.8,4-9.7,14.1-9.7s14.8,4.9,14.8,11.7v14.8h-12.8c0-.8.2-2.9.2-4.8h0c-.8,2.9-3,5.2-8.3,5.2s-8.7-3.9-8.7-7.2ZM418.4,27.4v-.8h-3c-1.6,0-2.3.6-2.3,1.8s.8,2,2.2,2,3-1.1,3-3Z"/>
    <path class="st0" d="M206,53.3h15.6c13.8,0,19.5,6.5,19.5,17.4s-5.5,17.5-18.6,17.5h-16.5v-34.8ZM222.5,77.6c2.9,0,4.6-1.9,4.6-7s-1.9-6.9-4.8-6.9h-2.4v13.9h2.5Z"/>
    <path class="st0" d="M243.5,51.4h12.8v10.8c0,1.1,0,4-.1,6.8h0c1.1-3.9,3.7-7.5,9.5-7.5s9.3,3.8,9.3,10.2v16.4h-12.8v-12.9c0-1.9-.7-2.9-2.6-2.9s-3.3,1.2-3.3,3.9v11.8h-12.8v-36.7Z"/>
    <path class="st0" d="M277.3,75.1c0-7.7,4.7-13.5,15.8-13.5s15.8,5.8,15.8,13.5-4.7,13.4-15.8,13.4-15.8-5.7-15.8-13.4ZM296,75c0-3.3-1-4.8-3-4.8s-3,1.5-3,4.8,1,4.8,3,4.8,3-1.6,3-4.8Z"/>
    <path class="st0" d="M311.1,61.9h12.8l-.2,7h.1c1.1-4.1,3.6-7.5,8.6-7.5s7.9,2.3,8.6,7.2h0c1-4.1,3.9-7.2,8.7-7.2s8.8,3.5,8.8,10.2v16.4h-12.8v-13c0-1.9-.6-2.8-2-2.8s-2.6,1.2-2.6,3.8v12h-12.8v-13c0-1.8-.6-2.7-2-2.7s-2.6,1.2-2.6,3.8v11.9h-12.8v-26.1Z"/>
    <path class="st0" d="M374,82.7h0c0,1.6.1,4,.2,5.4h-12.8v-36.7h12.8v9.9c0,1.5,0,3.7-.2,5h.1c1.2-3,4-4.8,8.4-4.8,6.8,0,10.7,4.3,10.7,12.9s-4.5,14.1-10.7,14.1-7.5-2.6-8.5-5.8ZM380.5,74.9c0-3.1-1-4.7-2.9-4.7s-3.4,1.4-3.4,4.4v1.7c.2,2.4,1.5,3.5,3.4,3.5s3-1.5,3-4.9Z"/>
    <path class="st0" d="M395.6,61.9h12.8l-.2,7.2h.1c1-4.3,3.1-7.6,8-7.6s7.9,3.3,7.9,10.6-.2,5.5-.3,7h-10.5c0-1,0-2.6,0-3.5,0-2.2-.7-3.2-2.2-3.2s-3,1.7-3,5.1v10.6h-12.8v-26.1Z"/>
    <path class="st0" d="M455.7,76.3h-16.8c.2,3.3,1.1,4.6,3.3,4.6s2.8-1,2.8-3h10.7c0,6.4-4.1,10.6-14.3,10.6s-15.3-6.1-15.3-13.2,5.9-13.8,15.3-13.8,14.3,4.1,14.3,12.2v2.6ZM445,71.2c0-1.9-1-3-2.8-3s-2.9,1-3.2,4h6v-1Z"/>
    <path class="st0" d="M457.4,79.2h10.4c0,2.1,1.1,3,2.9,3s2.6-.8,2.6-2.2-.5-1.5-1.8-1.7c-1.2-.2-2.8-.3-4.3-.5-3.4-.4-5.7-.8-7.3-1.9-1.6-1-2.6-3-2.6-5.2,0-5.6,4.9-9.3,14.1-9.3s13.7,3.7,13.7,9.5h-10.4c0-2.3-.8-3.2-2.5-3.2s-2.5.8-2.5,2.1.4,1.7,2,2.1c1.3.2,3.1.4,4.8.5,2.6.3,5,.6,6.7,1.6,2,1.2,2.8,3.2,2.8,5.3,0,5-3.1,9.2-14.8,9.2s-14-4.5-14-9.3Z"/>
  </g>
</svg>