<?xml version="1.0" encoding="UTF-8"?>
<svg id="Layer_2" data-name="Layer 2" xmlns="http://www.w3.org/2000/svg" viewBox="0 0 87.43 87.72">
  <defs>
    <style>
      .cls-1 {
        fill: #dc2126;
      }
    </style>
  </defs>
  <g id="Layer_1-2" data-name="Layer 1">
    <path class="cls-1" d="M38.17,49.93c8.83,5.73,16.83,12.71,23.75,20.75l.78.91-1.03.61c-8.19,4.81-17.17,5.32-23.73,5.7-.87.05-1.72.07-2.56.09l-1.52.02.57-1.4c.89-2.16,1.33-4.44,1.33-6.77,0-9.86-8.02-17.89-17.89-17.89S0,59.97,0,69.84s8.02,17.89,17.89,17.89l69.54-.05V17.8c0-9.81-7.98-17.8-17.8-17.8s-17.8,7.98-17.8,17.8,7.98,17.8,17.8,17.8c2.77,0,5.45-.64,7.95-1.89l1.45-.72v1.62c0,.75,0,1.51-.04,2.28-.21,5.21-.63,16.04-6.75,25.28l-.64.97-.86-.78c-5.64-8.11-12.79-17.05-21.77-26.05C31.66,18.96,13.9,7.81.1.72l.14,33.64c13.6,2.82,26.35,8.06,37.94,15.57Z"/>
  </g>
</svg>